<svg xmlns="http://www.w3.org/2000/svg" xmlns:xlink="http://www.w3.org/1999/xlink" width="1366" zoomAndPan="magnify" viewBox="0 0 1024.5 474.749983" height="633" preserveAspectRatio="xMidYMid meet" version="1.0"><defs><g/><clipPath id="f9a0cd0515"><path d="M 0.0195312 0 L 1023.980469 0 L 1023.980469 474.5 L 0.0195312 474.5 Z M 0.0195312 0 " clip-rule="nonzero"/></clipPath><clipPath id="e17d5e7101"><path d="M 110.472656 341.738281 L 555.765625 341.738281 L 555.765625 345.488281 L 110.472656 345.488281 Z M 110.472656 341.738281 " clip-rule="nonzero"/></clipPath><clipPath id="f1a9905524"><path d="M 110.472656 337.992188 L 555.765625 337.992188 L 555.765625 341.738281 L 110.472656 341.738281 Z M 110.472656 337.992188 " clip-rule="nonzero"/></clipPath></defs><g clip-path="url(#f9a0cd0515)"><path fill="#ffffff" d="M 0.0195312 0 L 1023.980469 0 L 1023.980469 474.5 L 0.0195312 474.5 Z M 0.0195312 0 " fill-opacity="1" fill-rule="nonzero"/><path fill="#fefdf7" d="M 0.0195312 0 L 1023.980469 0 L 1023.980469 474.5 L 0.0195312 474.5 Z M 0.0195312 0 " fill-opacity="1" fill-rule="nonzero"/></g><g fill="#2e2e2e" fill-opacity="1"><g transform="translate(88.738099, 308.314048)"><g><path d="M 39.6875 -65.90625 L 39.6875 0 L 19.953125 0 L 19.953125 -151.078125 L 39.6875 -151.078125 L 39.6875 -85.40625 L 113.484375 -85.40625 L 113.484375 -151.078125 L 132.96875 -151.078125 L 132.96875 0 L 113.703125 0 L 113.484375 -65.90625 Z M 39.6875 -65.90625 "/></g></g></g><g fill="#2e2e2e" fill-opacity="1"><g transform="translate(221.475635, 308.314048)"><g><path d="M 114.875 -29.234375 L 45.71875 -29.234375 L 32.25 0 L 10.90625 0 L 81.6875 -152.703125 L 148.75 0 L 127.640625 0 Z M 106.515625 -48.5 L 80.984375 -105.828125 L 54.53125 -48.5 Z M 106.515625 -48.5 "/></g></g></g><g fill="#2e2e2e" fill-opacity="1"><g transform="translate(360.710937, 308.314048)"><g><path d="M 103.03125 -145.734375 L 142.015625 -52.21875 L 174.28125 -151.078125 L 194.46875 -151.078125 L 144.109375 3.71875 L 103.03125 -95.375 L 61.734375 3.71875 L 10.90625 -151.078125 L 31.09375 -151.078125 L 64.046875 -51.984375 Z M 103.03125 -145.734375 "/></g></g></g><g fill="#2e2e2e" fill-opacity="1"><g transform="translate(545.894751, 308.314048)"><g><path d="M 126.234375 0 L 101.875 0 L 44.5625 -80.984375 L 66.375 -80.984375 C 71.9375 -80.984375 76.882812 -81.375 81.21875 -82.15625 C 85.394531 -82.769531 88.644531 -83.539062 90.96875 -84.46875 C 95.757812 -86.632812 99.550781 -89.804688 102.34375 -93.984375 C 105.125 -98.003906 106.515625 -102.179688 106.515625 -106.515625 C 106.515625 -110.847656 105.203125 -114.945312 102.578125 -118.8125 C 99.941406 -122.53125 96.148438 -125.625 91.203125 -128.09375 C 86.253906 -130.414062 80.53125 -131.578125 74.03125 -131.578125 L 38.984375 -131.578125 L 39.453125 0 L 19.71875 0 L 19.71875 -151.078125 L 74.03125 -151.078125 C 81.300781 -151.078125 88.109375 -149.914062 94.453125 -147.59375 C 100.796875 -145.269531 106.363281 -141.941406 111.15625 -137.609375 C 115.800781 -133.429688 119.4375 -128.632812 122.0625 -123.21875 C 124.539062 -117.8125 125.78125 -112.242188 125.78125 -106.515625 C 125.78125 -97.390625 122.992188 -89.191406 117.421875 -81.921875 C 112.785156 -75.734375 106.519531 -70.703125 98.625 -66.828125 C 92.59375 -64.660156 87.253906 -63.578125 82.609375 -63.578125 Z M 126.234375 0 "/></g></g></g><g fill="#2e2e2e" fill-opacity="1"><g transform="translate(666.332973, 308.314048)"><g><path d="M 153.390625 -37.125 C 146.429688 -25.21875 137.148438 -15.859375 125.546875 -9.046875 C 113.785156 -2.085938 101.019531 1.390625 87.25 1.390625 C 73.332031 1.390625 60.570312 -2.085938 48.96875 -9.046875 C 37.207031 -15.859375 27.925781 -25.21875 21.125 -37.125 C 14.3125 -48.882812 10.90625 -61.726562 10.90625 -75.65625 C 10.90625 -89.425781 14.3125 -102.265625 21.125 -114.171875 C 28.082031 -125.929688 37.441406 -135.289062 49.203125 -142.25 C 60.804688 -149.0625 73.488281 -152.46875 87.25 -152.46875 C 100.863281 -152.46875 113.628906 -149.0625 125.546875 -142.25 C 137.304688 -135.289062 146.585938 -125.929688 153.390625 -114.171875 C 160.203125 -102.265625 163.609375 -89.425781 163.609375 -75.65625 C 163.609375 -61.882812 160.203125 -49.039062 153.390625 -37.125 Z M 136.6875 -104.421875 C 131.582031 -113.242188 124.617188 -120.285156 115.796875 -125.546875 C 106.984375 -130.648438 97.46875 -133.203125 87.25 -133.203125 C 76.882812 -133.203125 67.375 -130.648438 58.71875 -125.546875 C 49.894531 -120.285156 42.929688 -113.242188 37.828125 -104.421875 C 32.722656 -95.609375 30.171875 -86.019531 30.171875 -75.65625 C 30.171875 -65.132812 32.722656 -55.460938 37.828125 -46.640625 C 42.929688 -37.828125 49.894531 -30.867188 58.71875 -25.765625 C 67.53125 -20.503906 77.039062 -17.875 87.25 -17.875 C 97.769531 -17.875 107.363281 -20.503906 116.03125 -25.765625 C 124.851562 -30.867188 131.816406 -37.828125 136.921875 -46.640625 C 141.867188 -55.460938 144.34375 -65.132812 144.34375 -75.65625 C 144.34375 -86.019531 141.789062 -95.609375 136.6875 -104.421875 Z M 136.6875 -104.421875 "/></g></g></g><g fill="#2e2e2e" fill-opacity="1"><g transform="translate(820.652387, 308.314048)"><g><path d="M 11.828125 -151.078125 L 134.125 -151.078125 L 134.125 -131.578125 L 82.84375 -131.578125 L 82.84375 0 L 63.125 0 L 63.125 -131.578125 L 11.828125 -131.578125 Z M 11.828125 -151.078125 "/></g></g></g><g clip-path="url(#e17d5e7101)"><path fill="#2e2e2e" d="M 110.472656 341.738281 L 555.769531 341.738281 L 555.769531 345.488281 L 110.472656 345.488281 Z M 110.472656 341.738281 " fill-opacity="1" fill-rule="nonzero"/></g><g fill="#2e2e2e" fill-opacity="1"><g transform="translate(565.99704, 362.284966)"><g><path d="M 17.875 0.765625 C 14.675781 0.765625 11.921875 0.238281 9.609375 -0.8125 C 7.304688 -1.875 5.53125 -3.375 4.28125 -5.3125 C 3.03125 -7.257812 2.40625 -9.539062 2.40625 -12.15625 L 10.90625 -12.15625 C 10.90625 -10.34375 11.53125 -8.925781 12.78125 -7.90625 C 14.039062 -6.882812 15.722656 -6.375 17.828125 -6.375 C 19.640625 -6.375 21.070312 -6.726562 22.125 -7.4375 C 23.1875 -8.144531 23.71875 -9.132812 23.71875 -10.40625 C 23.71875 -11.75 23.078125 -12.835938 21.796875 -13.671875 C 20.523438 -14.515625 18.546875 -15.226562 15.859375 -15.8125 C 11.390625 -16.757812 8.082031 -18.191406 5.9375 -20.109375 C 3.789062 -22.035156 2.71875 -24.546875 2.71875 -27.640625 C 2.71875 -31.128906 3.988281 -33.878906 6.53125 -35.890625 C 9.082031 -37.910156 12.554688 -38.921875 16.953125 -38.921875 C 19.972656 -38.921875 22.585938 -38.398438 24.796875 -37.359375 C 27.015625 -36.328125 28.734375 -34.875 29.953125 -33 C 31.171875 -31.132812 31.78125 -28.910156 31.78125 -26.328125 L 23.4375 -26.328125 C 23.4375 -28.035156 22.875 -29.378906 21.75 -30.359375 C 20.625 -31.347656 19.0625 -31.84375 17.0625 -31.84375 C 15.25 -31.84375 13.8125 -31.488281 12.75 -30.78125 C 11.695312 -30.070312 11.171875 -29.078125 11.171875 -27.796875 C 11.171875 -26.640625 11.753906 -25.660156 12.921875 -24.859375 C 14.085938 -24.054688 16.125 -23.3125 19.03125 -22.625 C 23.789062 -21.5 27.222656 -19.988281 29.328125 -18.09375 C 31.429688 -16.207031 32.484375 -13.753906 32.484375 -10.734375 C 32.484375 -7.140625 31.1875 -4.320312 28.59375 -2.28125 C 26 -0.25 22.425781 0.765625 17.875 0.765625 Z M 17.875 0.765625 "/></g></g></g><g fill="#2e2e2e" fill-opacity="1"><g transform="translate(614.191739, 362.284966)"><g><path d="M 4.578125 0 L 4.578125 -38.15625 L 13.25 -38.15625 L 13.25 0 Z M 4.578125 0 "/></g></g></g><g fill="#2e2e2e" fill-opacity="1"><g transform="translate(645.268205, 362.284966)"><g><path d="M 4.578125 0 L 4.578125 -38.15625 L 21.640625 -38.15625 C 25.523438 -38.15625 28.613281 -37.226562 30.90625 -35.375 C 33.195312 -33.519531 34.34375 -31.03125 34.34375 -27.90625 C 34.34375 -26.125 33.941406 -24.503906 33.140625 -23.046875 C 32.347656 -21.597656 31.222656 -20.457031 29.765625 -19.625 C 31.578125 -18.820312 32.984375 -17.640625 33.984375 -16.078125 C 34.984375 -14.515625 35.484375 -12.71875 35.484375 -10.6875 C 35.484375 -8.539062 34.9375 -6.664062 33.84375 -5.0625 C 32.757812 -3.46875 31.242188 -2.222656 29.296875 -1.328125 C 27.359375 -0.441406 25.097656 0 22.515625 0 Z M 13.140625 -6.875 L 21.203125 -6.875 C 22.910156 -6.875 24.238281 -7.269531 25.1875 -8.0625 C 26.132812 -8.863281 26.609375 -9.992188 26.609375 -11.453125 C 26.609375 -12.898438 26.132812 -14.023438 25.1875 -14.828125 C 24.238281 -15.628906 22.910156 -16.03125 21.203125 -16.03125 L 13.140625 -16.03125 Z M 13.140625 -22.625 L 20.328125 -22.625 C 22.003906 -22.625 23.285156 -23.003906 24.171875 -23.765625 C 25.066406 -24.523438 25.515625 -25.597656 25.515625 -26.984375 C 25.515625 -28.367188 25.066406 -29.429688 24.171875 -30.171875 C 23.285156 -30.921875 22.003906 -31.296875 20.328125 -31.296875 L 13.140625 -31.296875 Z M 13.140625 -22.625 "/></g></g></g><g fill="#2e2e2e" fill-opacity="1"><g transform="translate(696.079712, 362.284966)"><g><path d="M 4.578125 0 L 4.578125 -38.15625 L 13.25 -38.15625 L 13.25 -8.125 L 29.921875 -8.125 L 29.921875 0 Z M 4.578125 0 "/></g></g></g><g fill="#2e2e2e" fill-opacity="1"><g transform="translate(740.730827, 362.284966)"><g><path d="M 4.578125 0 L 4.578125 -38.15625 L 13.25 -38.15625 L 13.25 0 Z M 4.578125 0 "/></g></g></g><g fill="#2e2e2e" fill-opacity="1"><g transform="translate(771.807294, 362.284966)"><g><path d="M 4.578125 0 L 4.578125 -38.15625 L 11.9375 -38.15625 L 28.78125 -14.9375 L 28.78125 -38.15625 L 37.390625 -38.15625 L 37.390625 0 L 30.03125 0 L 13.1875 -23.390625 L 13.1875 0 Z M 4.578125 0 "/></g></g></g><g fill="#2e2e2e" fill-opacity="1"><g transform="translate(827.034642, 362.284966)"><g><path d="M 22.34375 0.765625 C 18.457031 0.765625 15.003906 -0.078125 11.984375 -1.765625 C 8.972656 -3.460938 6.613281 -5.800781 4.90625 -8.78125 C 3.195312 -11.757812 2.34375 -15.191406 2.34375 -19.078125 C 2.34375 -22.960938 3.1875 -26.394531 4.875 -29.375 C 6.570312 -32.363281 8.914062 -34.703125 11.90625 -36.390625 C 14.90625 -38.078125 18.332031 -38.921875 22.1875 -38.921875 C 25.28125 -38.921875 28.132812 -38.375 30.75 -37.28125 C 33.363281 -36.195312 35.585938 -34.664062 37.421875 -32.6875 C 39.253906 -30.707031 40.554688 -28.367188 41.328125 -25.671875 L 32 -25.671875 C 31.09375 -27.347656 29.789062 -28.648438 28.09375 -29.578125 C 26.40625 -30.503906 24.488281 -30.96875 22.34375 -30.96875 C 20.132812 -30.96875 18.175781 -30.457031 16.46875 -29.4375 C 14.757812 -28.414062 13.421875 -27.015625 12.453125 -25.234375 C 11.492188 -23.453125 11.015625 -21.398438 11.015625 -19.078125 C 11.015625 -16.785156 11.484375 -14.75 12.421875 -12.96875 C 13.367188 -11.1875 14.695312 -9.78125 16.40625 -8.75 C 18.113281 -7.71875 20.128906 -7.203125 22.453125 -7.203125 C 25.253906 -7.203125 27.582031 -7.910156 29.4375 -9.328125 C 31.289062 -10.742188 32.488281 -12.613281 33.03125 -14.9375 L 20.65625 -14.9375 L 20.65625 -21.640625 L 42.1875 -21.640625 C 42.40625 -18.367188 42.085938 -15.367188 41.234375 -12.640625 C 40.378906 -9.921875 39.070312 -7.550781 37.3125 -5.53125 C 35.550781 -3.507812 33.40625 -1.953125 30.875 -0.859375 C 28.351562 0.222656 25.507812 0.765625 22.34375 0.765625 Z M 22.34375 0.765625 "/></g></g></g><g fill="#2e2e2e" fill-opacity="1"><g transform="translate(884.769756, 362.284966)"><g><path d="M 17.875 0.765625 C 14.675781 0.765625 11.921875 0.238281 9.609375 -0.8125 C 7.304688 -1.875 5.53125 -3.375 4.28125 -5.3125 C 3.03125 -7.257812 2.40625 -9.539062 2.40625 -12.15625 L 10.90625 -12.15625 C 10.90625 -10.34375 11.53125 -8.925781 12.78125 -7.90625 C 14.039062 -6.882812 15.722656 -6.375 17.828125 -6.375 C 19.640625 -6.375 21.070312 -6.726562 22.125 -7.4375 C 23.1875 -8.144531 23.71875 -9.132812 23.71875 -10.40625 C 23.71875 -11.75 23.078125 -12.835938 21.796875 -13.671875 C 20.523438 -14.515625 18.546875 -15.226562 15.859375 -15.8125 C 11.390625 -16.757812 8.082031 -18.191406 5.9375 -20.109375 C 3.789062 -22.035156 2.71875 -24.546875 2.71875 -27.640625 C 2.71875 -31.128906 3.988281 -33.878906 6.53125 -35.890625 C 9.082031 -37.910156 12.554688 -38.921875 16.953125 -38.921875 C 19.972656 -38.921875 22.585938 -38.398438 24.796875 -37.359375 C 27.015625 -36.328125 28.734375 -34.875 29.953125 -33 C 31.171875 -31.132812 31.78125 -28.910156 31.78125 -26.328125 L 23.4375 -26.328125 C 23.4375 -28.035156 22.875 -29.378906 21.75 -30.359375 C 20.625 -31.347656 19.0625 -31.84375 17.0625 -31.84375 C 15.25 -31.84375 13.8125 -31.488281 12.75 -30.78125 C 11.695312 -30.070312 11.171875 -29.078125 11.171875 -27.796875 C 11.171875 -26.640625 11.753906 -25.660156 12.921875 -24.859375 C 14.085938 -24.054688 16.125 -23.3125 19.03125 -22.625 C 23.789062 -21.5 27.222656 -19.988281 29.328125 -18.09375 C 31.429688 -16.207031 32.484375 -13.753906 32.484375 -10.734375 C 32.484375 -7.140625 31.1875 -4.320312 28.59375 -2.28125 C 26 -0.25 22.425781 0.765625 17.875 0.765625 Z M 17.875 0.765625 "/></g></g></g><g clip-path="url(#f1a9905524)"><path fill="#2e2e2e" d="M 110.472656 337.992188 L 555.769531 337.992188 L 555.769531 341.738281 L 110.472656 341.738281 Z M 110.472656 337.992188 " fill-opacity="1" fill-rule="nonzero"/></g></svg>